<svg xmlns="http://www.w3.org/2000/svg" xmlns:xlink="http://www.w3.org/1999/xlink" width="1920" zoomAndPan="magnify" viewBox="0 0 1440 809.999993" height="1080" preserveAspectRatio="xMidYMid meet" version="1.0"><defs><g/><clipPath id="9bcc65eac4"><path d="M 171.125 132 L 1269 132 L 1269 529 L 171.125 529 Z M 171.125 132 " clip-rule="nonzero"/></clipPath></defs><path fill="#f57c89" d="M 378.496094 354.933594 C 368.597656 366.503906 371.519531 392.910156 400.628906 408.144531 C 429.742188 423.375 485.042969 427.429688 540.472656 425.707031 C 595.902344 423.980469 651.453125 416.476562 690.804688 393.222656 C 730.160156 369.964844 753.316406 330.957031 746.03125 319.679688 C 738.75 308.40625 701.023438 324.863281 643.917969 334.527344 C 586.8125 344.1875 510.320312 347.050781 460.71875 346.847656 C 411.113281 346.640625 388.394531 343.367188 378.496094 354.933594 " fill-opacity="1" fill-rule="evenodd"/><path fill="#db3c1c" d="M 930.453125 264.753906 C 909.5625 258.078125 862.4375 245.726562 796.941406 251.078125 C 731.441406 256.425781 647.558594 279.480469 564.730469 293.328125 C 481.902344 307.171875 400.125 311.808594 375.71875 320.621094 C 351.308594 329.4375 384.273438 342.429688 433.832031 349.914062 C 483.390625 357.402344 549.546875 359.386719 622.65625 348.476562 C 695.757812 337.566406 775.8125 313.765625 829.972656 299.113281 C 884.136719 284.457031 912.414062 278.949219 929.214844 275.695312 C 946.015625 272.4375 951.347656 271.433594 930.453125 264.753906 " fill-opacity="1" fill-rule="evenodd"/><g clip-path="url(#9bcc65eac4)"><path stroke-linecap="round" transform="matrix(0.0673573, 0, 0, -0.0673147, 170.401668, 528.715313)" fill="none" stroke-linejoin="round" d="M 14557.515099 4655.956585 C 14234.320416 4732.033434 13911.125732 4808.110283 13560.790351 4849.079205 C 13210.396977 4889.990096 12832.920897 4895.79306 12623.914323 4869.679725 C 12414.791763 4843.50836 12374.080715 4785.478726 12483.281431 4712.767596 C 12592.598132 4640.114495 12851.710611 4552.837926 12947.514957 4532.469525 C 13043.319302 4512.159153 12975.9315 4558.756949 12457.184606 4753.446369 C 11938.61169 4948.077759 10968.679684 5290.684715 10248.581284 5514.272893 C 9528.482885 5737.86107 9058.044114 5842.43047 8398.954293 5856.937878 C 7739.806479 5871.445286 6891.891628 5795.948733 6197.890054 5639.152664 C 5503.88848 5482.356594 4963.800182 5244.261008 4496.319052 4956.782204 C 4028.779928 4669.3034 3633.905965 4332.441378 3686.157609 4370.21867 C 3738.409252 4407.937931 4237.844495 4820.296506 4888.293368 5020.672831 C 5538.74224 5220.991125 6340.146749 5209.385199 7008.051497 5087.406909 C 7675.898253 4965.486649 8210.187256 4733.194027 8596.362278 4596.708329 C 8982.595292 4460.222631 9220.656332 4419.543858 9574.935234 4387.62756 C 9929.214135 4355.653232 10399.594913 4332.441378 10823.465349 4265.64927 C 11247.509764 4198.915192 11624.985843 4088.542829 11717.890541 4097.247274 C 11810.795239 4105.951719 11619.186549 4233.732972 11061.700367 4332.441378 C 10504.0982 4431.207814 9580.734528 4500.843375 8474.461107 4448.616704 C 7368.129694 4396.332005 6078.830538 4222.127045 5210.618157 4117.557646 C 4342.405775 4013.046276 3895.222176 3978.228496 3538.043627 3978.228496 C 3180.923071 3978.228496 2913.749573 4013.046276 2806.346638 4091.444311 C 2698.885711 4169.842345 2751.137355 4291.820635 2896.351689 4376.021633 C 3041.508031 4460.222631 3279.627063 4506.646338 3378.331056 4474.730039 C 3477.093041 4442.813741 3436.439987 4332.441378 3378.331056 4236.634454 C 3320.280118 4140.827529 3244.773303 4059.528012 3157.6679 4050.765538 C 3070.562496 4042.061093 2971.800511 4105.951719 2954.402627 4178.546791 C 2937.004744 4251.141862 3000.854976 4332.441378 3093.759674 4393.430523 C 3186.722365 4454.419668 3308.681529 4495.098441 3282.526711 4434.109296 C 3256.371892 4373.120151 3082.161085 4210.521119 2809.188293 4108.853201 C 2536.273493 4007.243313 2164.596708 3966.622569 1850.970861 3937.549723 C 1537.403006 3908.534906 1281.828097 3891.067987 1162.768581 3844.64428 C 1043.767058 3798.162543 1061.164941 3722.66599 1113.416585 3696.552655 C 1165.726221 3670.381291 1252.831625 3693.593144 1325.438792 3740.07488 C 1397.987966 3786.556617 1456.096897 3856.250206 1380.590083 3862.05317 C 1305.083268 3867.856133 1096.018701 3809.76847 930.506836 3731.370435 C 764.994971 3652.972401 643.035807 3554.263994 544.273821 3307.463963 C 445.569829 3060.605903 370.063014 2665.714247 306.154789 2389.84137 C 242.304556 2114.026522 190.052913 1957.172423 192.95256 1864.26698 C 195.852207 1771.361537 253.903145 1742.34672 236.505262 1692.963502 C 219.107378 1643.580284 126.144687 1573.944724 70.993396 1568.083731 C 15.842106 1562.280768 -1.613771 1620.368431 102.947509 1608.762504 C 207.450796 1597.098548 433.97124 1515.799031 587.826523 1472.276806 C 741.7398 1428.696552 823.045909 1422.893588 840.443792 1495.48866 C 857.899669 1568.083731 811.44732 1719.076837 741.7398 1788.770427 C 672.090272 1858.464017 579.127581 1846.85809 494.979818 1846.85809 C 410.774062 1846.85809 335.267247 1858.464017 341.066542 1925.256125 C 346.865836 1992.048233 433.97124 2114.026522 529.775585 2140.139857 C 625.57993 2166.253192 730.14121 2096.617632 715.584981 2087.855158 C 701.086745 2079.150713 567.528992 2131.435412 509.478054 2256.257154 C 451.369123 2381.136925 468.825 2578.611768 532.675232 2744.112282 C 596.583458 2909.612797 706.944032 3043.197013 764.994971 3078.014793 C 823.045909 3112.890602 828.903196 3048.999976 802.748378 2921.218723 C 776.59356 2793.4955 718.542621 2601.823621 686.588509 2456.633478 C 654.634396 2311.443335 648.835101 2212.734929 663.333338 2331.753707 C 677.831574 2450.830515 712.743327 2787.692537 811.44732 3028.689604 C 910.151312 3269.686672 1072.76353 3414.876815 1281.828097 3478.767441 C 1490.950657 3542.658068 1746.467574 3525.249177 1972.988017 3397.467925 C 2199.450468 3269.686672 2396.916446 3031.591086 2492.720791 2712.195984 C 2588.525137 2392.742852 2582.725842 1992.048233 2550.771729 1707.470911 C 2518.875609 1422.893588 2460.766678 1254.491592 2306.911395 1132.513303 C 2152.998119 1010.593043 1903.280497 935.09649 1682.559348 955.406862 C 1461.896192 975.717233 1270.229508 1091.892559 1125.015174 1338.69259 C 979.858832 1585.492621 881.15484 1963.033416 881.15484 2296.935927 C 881.15484 2630.896467 979.858832 2921.218723 1110.516937 3092.580231 C 1241.233036 3263.883709 1403.845254 3316.110379 1502.549246 3336.47878 C 1601.253239 3356.789152 1636.106999 3345.183225 1609.952181 3295.800007 C 1583.855355 3246.474819 1496.691959 3159.372339 1502.549246 3005.419721 C 1508.348541 2851.525133 1607.052533 2630.896467 1624.50841 2639.542883 C 1641.906293 2648.305357 1578.056061 2886.400943 1609.952181 3011.222685 C 1641.906293 3136.102456 1769.664752 3147.708382 1903.280497 3031.591086 C 2036.83825 2915.41576 2176.195297 2671.517211 2234.246235 2386.939888 C 2292.355166 2102.362566 2269.157988 1777.1645 2144.299177 1562.280768 C 2019.440366 1347.397035 1792.919923 1242.885665 1595.453944 1289.309372 C 1397.987966 1335.791109 1229.576454 1533.265951 1145.370697 1806.179317 C 1061.164941 2079.150713 1061.164941 2427.618661 1113.416585 2659.911284 C 1165.726221 2892.203907 1270.229508 3008.379233 1464.795839 3083.875786 C 1659.304177 3159.372339 1943.875559 3194.190119 2196.550821 3153.569375 C 2449.168089 3112.890602 2669.831246 2996.715276 2899.193343 2802.199945 C 3128.613434 2607.626584 3366.732467 2334.713218 3709.41278 2157.548747 C 4052.035099 1980.442306 4499.160706 1899.14279 5007.352884 1893.339826 C 5515.487069 1887.478834 6084.629832 1957.172423 6636.374712 2087.855158 C 7188.061599 2218.537892 7722.350602 2410.151742 8102.726329 2584.414731 C 8483.160049 2758.61969 8709.6225 2915.41576 8613.818154 3028.689604 C 8517.955816 3141.905419 8099.884675 3211.599009 7289.665239 3275.489635 C 6479.561789 3339.380262 5277.426029 3397.467925 4385.958477 3385.803968 C 3494.490925 3374.256071 2913.749573 3292.898525 2666.931598 3202.894564 C 2420.113624 3112.890602 2507.219027 3014.182196 2571.127253 2805.101427 C 2634.977486 2596.020658 2675.63054 2276.625555 2664.031951 1994.949715 C 2652.433362 1713.273874 2588.525137 1469.375325 2608.88066 1335.791109 C 2629.178191 1202.206892 2733.739471 1178.995039 2977.657798 1161.586149 C 3221.518132 1144.177259 3604.793507 1132.513303 3662.902438 1210.911337 C 3721.011369 1289.309372 3453.83787 1457.769398 3233.174714 1553.576323 C 3012.511558 1649.383248 2838.300751 1672.653131 2835.343111 1600.058059 C 2832.443464 1527.462988 3000.854976 1359.002962 3253.472245 1271.900482 C 3506.089514 1184.798002 3842.970532 1178.995039 4234.944848 1164.487631 C 4626.977157 1149.980222 5074.160757 1126.710339 5492.231898 1080.286633 C 5910.419025 1033.804896 6299.551687 964.111307 6688.626356 911.826607 C 7077.701024 859.599937 7466.833686 824.724127 7574.23662 868.304382 C 7681.697548 911.826607 7507.486741 1033.804896 7222.915359 1170.290594 C 6938.343977 1306.776292 6543.412021 1457.769398 6351.80333 1475.178288 C 6160.136647 1492.587178 6171.735236 1376.411852 6264.697927 1251.590111 C 6357.602625 1126.710339 6531.813432 993.184153 6848.338927 917.62957 C 7164.864421 842.191047 7623.588617 824.724127 7931.415169 798.610792 C 8239.241722 772.497457 8396.054646 737.621647 8407.653235 836.330054 C 8419.251824 935.09649 8285.694071 1167.389112 8265.338547 1460.67088 C 8244.983024 1753.952647 8337.945715 2108.165529 8207.287609 2198.22752 C 8076.629504 2288.231482 7722.350602 2114.026522 7042.847264 1939.763533 C 6363.40192 1765.558574 5358.732138 1591.353614 4685.028095 1501.291623 C 4011.382045 1411.287662 3668.701732 1405.484698 3796.46019 1414.189143 C 3924.276641 1422.893588 4522.415877 1446.105442 5190.262633 1446.105442 C 5858.167382 1446.105442 6595.663665 1422.893588 7138.709603 1338.69259 C 7681.697548 1254.491592 8030.119162 1109.301449 8274.037489 940.899453 C 8517.955816 772.497457 8657.370856 580.825578 8793.828256 421.128027 C 8930.343649 261.430475 9063.843408 133.649223 9313.619023 69.758596 C 9563.336645 5.86797 9929.214135 5.86797 10193.372 229.456147 C 10457.703844 453.044325 10620.316062 900.22068 10646.412888 1315.480737 C 10672.625699 1730.682764 10562.207131 2114.026522 10373.498088 2384.038407 C 10184.731052 2654.108321 9917.557553 2810.90439 9630.086525 2874.795016 C 9342.615496 2938.685643 9034.846936 2909.612797 8811.22614 2717.940917 C 8587.663336 2526.327068 8448.306289 2172.056156 8416.352176 1832.350682 C 8384.398064 1492.587178 8459.904878 1167.389112 8497.658285 1068.622676 C 8535.411693 969.91427 8535.411693 1097.695523 8573.1651 1161.586149 C 8610.918507 1225.476775 8686.367329 1225.476775 8724.120736 1405.484698 C 8761.874143 1585.492621 8761.874143 1945.566497 8904.188831 2177.859119 C 9046.445525 2410.151742 9331.016907 2514.721141 9609.788994 2433.421625 C 9888.561081 2352.122108 10161.475881 2084.953676 10251.480931 1751.051165 C 10341.485982 1417.090625 10248.581284 1016.396006 10132.537401 755.030537 C 10016.319539 493.723098 9876.904499 371.744809 9670.739579 360.138882 C 9464.632652 348.532955 9191.65986 447.241362 9014.491412 609.840395 C 8837.380958 772.497457 8756.074849 998.987116 8741.576613 1242.885665 C 8727.078376 1486.784215 8779.33002 1748.149684 8878.034012 1797.474872 C 8976.738005 1846.85809 9121.952339 1684.259057 9299.062794 1576.788176 C 9476.231241 1469.375325 9685.237815 1417.148655 9754.945335 1440.360508 C 9824.652855 1463.572361 9755.003328 1562.280768 9720.091575 1475.178288 C 9685.237815 1388.075808 9685.237815 1115.104413 9743.346746 859.599937 C 9801.455677 604.037431 9917.615546 365.941845 10010.520244 232.357629 C 10103.36695 98.773413 10173.132463 69.758596 10324.088099 69.758596 C 10475.101728 69.758596 10707.421466 98.773413 10887.373574 217.850221 C 11067.499662 336.927029 11195.200127 545.949768 11203.899069 624.405833 C 11212.713997 702.803867 11102.295429 650.519168 11026.788615 667.928058 C 10951.339793 685.394977 10910.686738 772.497457 10878.732626 1065.779224 C 10846.778513 1359.002962 10823.465349 1858.464017 10663.868764 2209.833447 C 10504.0982 2561.202877 10207.986223 2764.422654 10257.338219 2828.31328 C 10306.690215 2892.203907 10701.564178 2816.707353 10942.582858 2543.735958 C 11183.601538 2270.822592 11270.706942 1800.376354 11291.004472 1472.276806 C 11311.417989 1144.177259 11264.907647 958.308343 11288.104825 914.728089 C 11311.417989 871.205863 11404.322687 969.91427 11601.672679 1016.396006 C 11799.19665 1062.877743 12101.165916 1057.01675 12446.687883 1289.309372 C 12792.325835 1521.660024 13181.400504 1992.048233 13521.123177 2302.73889 C 13860.903842 2613.429548 14151.216525 2764.422654 14548.990136 2866.090571 C 14946.937725 2967.70046 15452.11427 3019.985159 15739.585299 2935.726132 C 16027.114321 2851.525133 16096.705855 2630.896467 16117.119371 2427.618661 C 16137.416902 2224.340856 16108.362437 2038.529969 16105.520782 1881.67587 C 16102.505149 1724.93783 16125.818313 1597.098548 16169.313022 1623.269913 C 16212.923717 1649.383248 16276.831942 1829.4492 16180.969604 1913.650198 C 16085.107266 1997.851196 15829.59035 1986.24527 15205.296295 1829.4492 C 14581.002241 1672.653131 13587.873056 1370.666918 13010.089344 1135.414784 C 12432.189646 900.22068 12269.577428 731.818684 12075.06909 653.420649 C 11880.502759 575.022614 11653.982316 586.628541 11770.200178 569.219651 C 11886.302054 551.810761 12345.084243 505.329025 12647.111501 522.737915 C 12949.138759 540.146805 13094.295101 621.504351 13227.79486 769.537946 C 13361.410606 917.62957 13483.427762 1132.513303 13558.934577 1196.403929 C 13634.383398 1260.294556 13663.379871 1173.192076 13608.22858 1030.903415 C 13553.077289 888.614753 13413.720242 691.197941 13428.218479 723.114239 C 13442.716715 755.030537 13611.128227 1016.396006 13779.597733 1193.502447 C 13948.009246 1370.666918 14116.420758 1463.572361 14154.116172 1393.878772 C 14191.927573 1324.185182 14098.964882 1091.892559 14014.701132 967.012788 C 13930.495376 842.191047 13855.104547 824.724127 13936.410657 940.899453 C 14017.716766 1057.01675 14255.777805 1306.776292 14406.791434 1431.598033 C 14557.805063 1556.477804 14621.597303 1556.477804 14595.500478 1437.400997 C 14569.403652 1318.382219 14453.18579 1080.286633 14389.335558 1019.297488 C 14325.485325 958.308343 14313.886736 1074.42564 14456.085438 1234.18122 C 14598.400125 1393.878772 14894.570096 1597.098548 15010.729965 1597.098548 C 15126.889834 1597.098548 15062.981608 1393.878772 14973.03455 1251.590111 C 14883.0295 1109.301449 14766.811638 1028.001933 14804.623038 1126.710339 C 14842.318452 1225.418746 15033.985136 1504.251134 15182.099117 1646.481766 C 15330.097113 1788.770427 15434.716386 1794.57339 15452.11427 1692.963502 C 15469.512153 1591.353614 15399.920619 1382.272845 15315.598877 1274.801964 C 15231.393121 1167.389112 15132.689128 1161.586149 15179.19947 1295.112336 C 15225.593826 1428.696552 15417.318503 1701.667947 15568.332132 1797.474872 C 15719.287768 1893.339826 15829.59035 1812.04031 15835.389644 1658.145722 C 15841.188939 1504.251134 15742.484946 1277.703446 15693.13295 1225.476775 C 15643.780953 1173.192076 15643.780953 1295.112336 15725.087062 1539.068914 C 15806.393172 1782.967464 15969.00539 2148.844302 15873.201044 2294.034445 C 15777.338706 2439.224588 15423.117797 2363.728035 14914.925619 2233.045301 C 14406.791434 2102.362566 13744.68598 1916.55168 13216.196271 1843.956608 C 12687.822548 1771.361537 12292.832599 1812.04031 11996.720621 1870.069943 C 11700.492658 1928.157607 11503.02668 2003.65416 11398.523393 2163.351711 C 11294.020106 2323.049262 11282.305531 2566.947811 11140.106829 2709.294502 C 10997.792142 2851.583163 10724.819349 2892.203907 10823.465349 2895.105388 C 10922.285327 2898.00687 11392.724098 2863.18909 11837.008051 2819.608835 C 12281.23401 2776.08661 12699.363144 2723.80191 13039.085817 2776.08661 C 13378.808489 2828.31328 13640.182693 2985.10935 13904.398551 3051.901458 C 14168.730395 3118.693566 14435.787907 3095.481712 14772.610932 3144.806901 C 15109.49195 3194.190119 15516.022495 3316.168408 15768.581771 3362.592115 C 16021.19904 3409.073851 16120.019019 3380.001005 16175.112317 3229.007899 C 16230.3216 3078.014793 16241.920189 2805.101427 16259.376066 2831.214762 C 16276.831942 2857.328097 16300.02912 3182.584192 16178.011964 3429.384223 C 16056.110793 3676.184254 15788.937295 3844.64428 15722.187415 3853.348725 C 15655.379542 3862.05317 15788.937295 3711.060064 15786.095641 3670.381291 C 15783.195993 3629.760547 15643.780953 3699.454137 15513.064855 3754.640318 C 15382.40675 3809.76847 15260.505579 3850.447243 15135.588775 3856.250206 C 15010.729965 3862.05317 14883.0295 3833.038353 14874.330558 3754.640318 C 14865.573623 3676.184254 14975.876205 3548.461031 15025.286194 3548.461031 C 15074.580197 3548.461031 15062.981608 3676.184254 14955.578674 3745.935873 C 14848.117747 3815.629463 14644.910467 3827.17736 14557.805063 3745.877844 C 14470.583674 3664.578327 14499.696132 3490.373368 14579.726397 3455.671647 C 14659.698668 3420.911897 14790.588745 3525.771444 14726.68052 3609.972442 C 14662.88828 3694.17344 14404.181752 3757.773919 14254.50196 3728.585013 C 14104.822169 3699.454137 14064.111122 3577.475848 14096.123227 3458.34101 C 14128.135333 3339.206173 14232.812599 3222.856758 14270.508013 3263.477501 C 14308.319413 3304.156274 14279.090969 3501.805206 14110.621464 3562.85238 C 13942.209951 3623.957584 13634.383398 3548.461031 13204.597682 3501.979294 C 12774.927952 3455.497558 12223.183072 3438.088668 11802.096298 3461.358551 C 11381.067516 3484.570404 11090.69684 3548.461031 10901.929804 3641.366474 C 10713.162767 3734.271917 10626.115357 3856.250206 10617.416415 3821.432426 C 10608.717473 3786.556617 10678.424993 3594.942767 10826.422989 3438.088668 C 10974.478978 3281.292599 11200.999422 3159.314309 11256.208705 3136.102456 C 11311.417989 3112.890602 11195.200127 3188.387155 11227.212233 3272.588154 C 11259.108353 3356.789152 11439.118454 3449.752624 11421.662578 3562.968439 C 11404.322687 3676.184254 11189.400833 3809.76847 11038.387204 3870.757615 C 10887.373574 3931.74676 10800.268171 3920.140833 10864.234389 3876.560578 C 10928.084622 3833.038353 11143.006477 3757.5418 11436.218807 3792.35958 C 11729.48913 3827.17736 12101.165916 3972.425533 12310.288476 3998.538868 C 12519.29505 4024.652203 12565.805392 3931.74676 12527.993992 3859.151688 C 12490.298577 3786.556617 12368.281421 3734.271917 12397.393879 3696.552655 C 12426.390352 3658.775364 12606.400453 3635.563511 12731.317257 3647.169437 C 12856.176068 3658.775364 12925.883588 3705.2571 13004.174064 3769.147727 C 13082.696512 3833.038353 13169.801915 3914.27984 13227.79486 4007.243313 C 13285.903791 4100.148756 13315.01625 4204.718155 13506.62494 4268.550752 C 13698.291624 4332.441378 14052.512533 4355.653232 14287.731918 4370.21867 C 14522.89331 4384.726078 14639.111172 4390.529041 14676.806587 4341.203853 C 14714.617987 4291.820635 14673.906939 4187.309265 14621.597303 4094.345792 C 14569.403652 4001.440349 14505.495427 3920.140833 14589.179247 3882.421571 C 14672.979052 3844.64428 14904.31291 3850.447243 15046.569605 3954.958613 C 15188.826299 4059.528012 15242.121816 4262.747789 15329.691163 4396.332005 C 15417.318503 4529.916221 15539.16168 4593.806847 15597.270611 4582.200921 C 15655.379542 4570.594994 15649.580248 4483.434484 15585.672022 4437.010778 C 15521.82179 4390.529041 15399.920619 4384.726078 15428.917092 4370.21867 C 15457.913564 4355.653232 15637.981659 4332.441378 15768.581771 4410.897443 C 15899.29787 4489.237448 15980.603979 4669.3034 15983.503626 4799.986135 C 15986.403273 4930.61084 15910.896459 5011.910356 15710.47284 4997.402948 C 15510.223201 4982.895539 15184.998765 4872.581206 14935.22315 4788.322178 C 14685.505528 4704.12118 14511.294721 4646.033517 14377.678976 4576.339928 C 14244.179216 4506.646338 14151.216525 4425.404851 14049.612885 4384.726078 C 13948.009246 4344.105335 13837.590678 4344.105335 13849.189267 4413.740895 C 13860.903842 4483.434484 13994.403602 4622.821664 13907.298198 4646.033517 C 13820.192795 4669.3034 13512.424235 4576.339928 13110.707104 4465.561357 C 12708.989973 4354.724758 12213.49825 4225.957001 11879.516879 4118.54415 C 11545.593501 4011.131298 11373.296462 3924.957292 11092.610607 3945.731901 C 10811.86676 3966.622569 10422.792091 4094.345792 9723.049216 4123.360609 C 9023.248347 4152.433455 8012.721278 4082.739866 7347.77417 3978.170466 C 6682.827061 3873.659097 6363.40192 3734.271917 6174.634883 3551.362513 C 5985.92584 3368.395078 5927.874902 3141.905419 5891.745297 2866.438749 C 5855.673685 2590.972079 5841.581399 2266.528399 5701.528437 2038.994206 C 5561.417482 1811.518043 5295.287856 1680.893339 5029.158231 1550.326663 " stroke="#021011" stroke-width="52.205002" stroke-opacity="1" stroke-miterlimit="22.926001"/></g><g fill="#000000" fill-opacity="1"><g transform="translate(505.660056, 647.668811)"><g><path d="M 2.546875 -4.796875 C 4.316406 -3.367188 6.546875 -2.039062 9.234375 -0.8125 C 11.921875 0.40625 15.4375 1.015625 19.78125 1.015625 C 22.570312 1.015625 25.15625 0.472656 27.53125 -0.609375 C 29.914062 -1.703125 31.835938 -3.351562 33.296875 -5.5625 C 34.765625 -7.769531 35.5 -10.539062 35.5 -13.875 C 35.5 -16.726562 34.921875 -19.070312 33.765625 -20.90625 C 32.609375 -22.738281 31.0625 -24.269531 29.125 -25.5 C 27.1875 -26.726562 25.0625 -27.78125 22.75 -28.65625 C 20.4375 -29.539062 18.101562 -30.476562 15.75 -31.46875 C 13.40625 -32.457031 11.265625 -33.628906 9.328125 -34.984375 C 7.390625 -36.347656 5.84375 -38.097656 4.6875 -40.234375 C 3.53125 -42.378906 2.953125 -45.082031 2.953125 -48.34375 C 2.953125 -51.539062 3.5625 -54.257812 4.78125 -56.5 C 6.007812 -58.75 7.609375 -60.570312 9.578125 -61.96875 C 11.554688 -63.363281 13.664062 -64.382812 15.90625 -65.03125 C 18.15625 -65.675781 20.300781 -66 22.34375 -66 C 25.0625 -66 27.488281 -65.675781 29.625 -65.03125 C 31.769531 -64.382812 33.472656 -63.738281 34.734375 -63.09375 C 35.992188 -62.445312 36.625 -62.125 36.625 -62.125 L 36.71875 -60.078125 C 36.71875 -60.078125 36.125 -60.414062 34.9375 -61.09375 C 33.75 -61.78125 32.082031 -62.476562 29.9375 -63.1875 C 27.789062 -63.90625 25.257812 -64.265625 22.34375 -64.265625 C 17.988281 -64.265625 14.601562 -62.972656 12.1875 -60.390625 C 9.769531 -57.804688 8.5625 -54.675781 8.5625 -51 C 8.5625 -47.9375 9.359375 -45.453125 10.953125 -43.546875 C 12.554688 -41.648438 14.597656 -40.070312 17.078125 -38.8125 C 19.566406 -37.550781 22.203125 -36.359375 24.984375 -35.234375 C 27.773438 -34.117188 30.410156 -32.828125 32.890625 -31.359375 C 35.378906 -29.898438 37.40625 -27.976562 38.96875 -25.59375 C 40.53125 -23.21875 41.3125 -20.160156 41.3125 -16.421875 C 41.3125 -12.609375 40.289062 -9.273438 38.25 -6.421875 C 36.207031 -3.566406 33.535156 -1.359375 30.234375 0.203125 C 26.941406 1.765625 23.457031 2.546875 19.78125 2.546875 C 16.113281 2.546875 13.003906 2.140625 10.453125 1.328125 C 7.898438 0.515625 5.941406 -0.296875 4.578125 -1.109375 C 3.222656 -1.929688 2.546875 -2.34375 2.546875 -2.34375 Z M 2.546875 -4.796875 "/></g></g></g><g fill="#000000" fill-opacity="1"><g transform="translate(550.030016, 647.668811)"><g><path d="M 50.1875 -64.0625 L 50.1875 -62.328125 L 30.390625 -62.328125 L 30.390625 0.109375 L 23.15625 0.109375 L 23.15625 -62.328125 L 3.359375 -62.328125 L 3.359375 -64.0625 Z M 50.1875 -64.0625 "/></g></g></g><g fill="#000000" fill-opacity="1"><g transform="translate(602.55998, 647.668811)"><g><path d="M 53.34375 0.109375 L 42.328125 -25.703125 L 17.34375 -25.703125 L 5.921875 0.109375 L 3.5625 0.109375 L 32.640625 -65.28125 L 33.25 -65.28125 L 61.203125 0.109375 Z M 18.15625 -27.34375 L 41.609375 -27.34375 L 30.09375 -54.265625 Z M 18.15625 -27.34375 "/></g></g></g><g fill="#000000" fill-opacity="1"><g transform="translate(666.411932, 647.668811)"><g><path d="M 50.1875 -64.0625 L 50.1875 -62.328125 L 30.390625 -62.328125 L 30.390625 0.109375 L 23.15625 0.109375 L 23.15625 -62.328125 L 3.359375 -62.328125 L 3.359375 -64.0625 Z M 50.1875 -64.0625 "/></g></g></g><g fill="#000000" fill-opacity="1"><g transform="translate(718.94189, 647.668811)"><g><path d="M 42.234375 -64.0625 L 49.46875 -64.0625 L 49.46875 0.109375 L 42.234375 0.109375 L 42.234375 -32.53125 L 12.234375 -32.53125 L 12.234375 0.109375 L 4.890625 0.109375 L 4.890625 -64.0625 L 12.234375 -64.0625 L 12.234375 -34.265625 L 42.234375 -34.265625 Z M 42.234375 -64.0625 "/></g></g></g><g fill="#000000" fill-opacity="1"><g transform="translate(772.69584, 647.668811)"><g><path d="M 69.96875 -65.28125 L 77.625 0.109375 L 70.28125 0 L 64.265625 -51.3125 L 37.9375 -1.625 L 37.640625 -1.625 L 12.234375 -50.484375 L 5.40625 0.109375 L 3.671875 0.109375 L 12.546875 -65.28125 L 12.859375 -65.28125 L 41 -10.90625 L 69.671875 -65.28125 Z M 69.96875 -65.28125 "/></g></g></g><g fill="#000000" fill-opacity="1"><g transform="translate(853.377782, 647.668811)"><g><path d="M 39.171875 -65.28125 C 43.722656 -65.28125 48.109375 -64.632812 52.328125 -63.34375 C 56.546875 -62.050781 60.300781 -60.0625 63.59375 -57.375 C 66.894531 -54.6875 69.515625 -51.21875 71.453125 -46.96875 C 73.390625 -42.71875 74.359375 -37.632812 74.359375 -31.71875 C 74.359375 -26.28125 73.554688 -21.640625 71.953125 -17.796875 C 70.359375 -13.953125 68.25 -10.753906 65.625 -8.203125 C 63.007812 -5.660156 60.15625 -3.640625 57.0625 -2.140625 C 53.96875 -0.640625 50.859375 0.394531 47.734375 0.96875 C 44.609375 1.550781 41.753906 1.84375 39.171875 1.84375 C 36.648438 1.84375 33.828125 1.550781 30.703125 0.96875 C 27.578125 0.394531 24.445312 -0.640625 21.3125 -2.140625 C 18.1875 -3.640625 15.332031 -5.660156 12.75 -8.203125 C 10.164062 -10.753906 8.070312 -13.953125 6.46875 -17.796875 C 4.875 -21.640625 4.078125 -26.28125 4.078125 -31.71875 C 4.078125 -37.632812 5.03125 -42.71875 6.9375 -46.96875 C 8.84375 -51.21875 11.441406 -54.6875 14.734375 -57.375 C 18.035156 -60.0625 21.789062 -62.050781 26 -63.34375 C 30.21875 -64.632812 34.609375 -65.28125 39.171875 -65.28125 Z M 39.171875 0.203125 C 42.023438 0.203125 45.066406 -0.21875 48.296875 -1.0625 C 51.523438 -1.914062 54.53125 -3.460938 57.3125 -5.703125 C 60.101562 -7.953125 62.382812 -11.179688 64.15625 -15.390625 C 65.925781 -19.609375 66.8125 -25.050781 66.8125 -31.71875 C 66.8125 -37.019531 66.179688 -41.523438 64.921875 -45.234375 C 63.660156 -48.941406 62.007812 -51.984375 59.96875 -54.359375 C 57.9375 -56.742188 55.675781 -58.613281 53.1875 -59.96875 C 50.707031 -61.332031 48.242188 -62.269531 45.796875 -62.78125 C 43.347656 -63.289062 41.140625 -63.546875 39.171875 -63.546875 C 37.191406 -63.546875 34.976562 -63.289062 32.53125 -62.78125 C 30.082031 -62.269531 27.632812 -61.332031 25.1875 -59.96875 C 22.738281 -58.613281 20.476562 -56.742188 18.40625 -54.359375 C 16.332031 -51.984375 14.664062 -48.941406 13.40625 -45.234375 C 12.15625 -41.523438 11.53125 -37.019531 11.53125 -31.71875 C 11.53125 -25.050781 12.410156 -19.609375 14.171875 -15.390625 C 15.941406 -11.179688 18.238281 -7.953125 21.0625 -5.703125 C 23.882812 -3.460938 26.894531 -1.914062 30.09375 -1.0625 C 33.289062 -0.21875 36.316406 0.203125 39.171875 0.203125 Z M 39.171875 0.203125 "/></g></g></g><g fill="#000000" fill-opacity="1"><g transform="translate(931.305726, 647.668811)"><g><path d="M 2.546875 -4.796875 C 4.316406 -3.367188 6.546875 -2.039062 9.234375 -0.8125 C 11.921875 0.40625 15.4375 1.015625 19.78125 1.015625 C 22.570312 1.015625 25.15625 0.472656 27.53125 -0.609375 C 29.914062 -1.703125 31.835938 -3.351562 33.296875 -5.5625 C 34.765625 -7.769531 35.5 -10.539062 35.5 -13.875 C 35.5 -16.726562 34.921875 -19.070312 33.765625 -20.90625 C 32.609375 -22.738281 31.0625 -24.269531 29.125 -25.5 C 27.1875 -26.726562 25.0625 -27.78125 22.75 -28.65625 C 20.4375 -29.539062 18.101562 -30.476562 15.75 -31.46875 C 13.40625 -32.457031 11.265625 -33.628906 9.328125 -34.984375 C 7.390625 -36.347656 5.84375 -38.097656 4.6875 -40.234375 C 3.53125 -42.378906 2.953125 -45.082031 2.953125 -48.34375 C 2.953125 -51.539062 3.5625 -54.257812 4.78125 -56.5 C 6.007812 -58.75 7.609375 -60.570312 9.578125 -61.96875 C 11.554688 -63.363281 13.664062 -64.382812 15.90625 -65.03125 C 18.15625 -65.675781 20.300781 -66 22.34375 -66 C 25.0625 -66 27.488281 -65.675781 29.625 -65.03125 C 31.769531 -64.382812 33.472656 -63.738281 34.734375 -63.09375 C 35.992188 -62.445312 36.625 -62.125 36.625 -62.125 L 36.71875 -60.078125 C 36.71875 -60.078125 36.125 -60.414062 34.9375 -61.09375 C 33.75 -61.78125 32.082031 -62.476562 29.9375 -63.1875 C 27.789062 -63.90625 25.257812 -64.265625 22.34375 -64.265625 C 17.988281 -64.265625 14.601562 -62.972656 12.1875 -60.390625 C 9.769531 -57.804688 8.5625 -54.675781 8.5625 -51 C 8.5625 -47.9375 9.359375 -45.453125 10.953125 -43.546875 C 12.554688 -41.648438 14.597656 -40.070312 17.078125 -38.8125 C 19.566406 -37.550781 22.203125 -36.359375 24.984375 -35.234375 C 27.773438 -34.117188 30.410156 -32.828125 32.890625 -31.359375 C 35.378906 -29.898438 37.40625 -27.976562 38.96875 -25.59375 C 40.53125 -23.21875 41.3125 -20.160156 41.3125 -16.421875 C 41.3125 -12.609375 40.289062 -9.273438 38.25 -6.421875 C 36.207031 -3.566406 33.535156 -1.359375 30.234375 0.203125 C 26.941406 1.765625 23.457031 2.546875 19.78125 2.546875 C 16.113281 2.546875 13.003906 2.140625 10.453125 1.328125 C 7.898438 0.515625 5.941406 -0.296875 4.578125 -1.109375 C 3.222656 -1.929688 2.546875 -2.34375 2.546875 -2.34375 Z M 2.546875 -4.796875 "/></g></g></g></svg>